<svg width="20" height="20" viewBox="0 0 20 20" fill="none" xmlns="http://www.w3.org/2000/svg">
<path d="M2.18168 4.16965C2.1807 3.13343 3.02045 2.29288 4.05668 2.29288H17.6047L17.6017 15.835C17.6014 16.8703 16.762 17.7096 15.7267 17.7096H4.06767C3.03283 17.7096 2.19365 16.8712 2.19267 15.8363L2.18168 4.16965Z" stroke="#404553" stroke-width="1.25"/>
<path fill-rule="evenodd" clip-rule="evenodd" d="M11.7859 12.3955C12.1627 12.0186 12.3958 11.4978 12.3958 10.9227C12.3958 9.7721 11.4631 8.83936 10.3125 8.83936C9.16187 8.83936 8.22913 9.7721 8.22913 10.9227C8.22913 11.4797 8.44774 11.9857 8.80385 12.3595L10.3102 14.1928L11.7859 12.3955Z" fill="#404553"/>
<path d="M11.7859 12.3955L11.3439 11.9537L11.3223 11.9753L11.3029 11.9989L11.7859 12.3955ZM8.80385 12.3595L9.28676 11.9627L9.27219 11.945L9.25637 11.9284L8.80385 12.3595ZM10.3102 14.1928L9.82725 14.5896L10.3103 15.1775L10.7932 14.5894L10.3102 14.1928ZM12.2279 12.8374C12.7171 12.348 13.0208 11.6702 13.0208 10.9227H11.7708C11.7708 11.3255 11.6083 11.6891 11.3439 11.9537L12.2279 12.8374ZM13.0208 10.9227C13.0208 9.42692 11.8082 8.21436 10.3125 8.21436V9.46436C11.1179 9.46436 11.7708 10.1173 11.7708 10.9227H13.0208ZM10.3125 8.21436C8.81669 8.21436 7.60413 9.42692 7.60413 10.9227H8.85413C8.85413 10.1173 9.50704 9.46436 10.3125 9.46436V8.21436ZM7.60413 10.9227C7.60413 11.6466 7.88894 12.3052 8.35134 12.7906L9.25637 11.9284C9.00655 11.6662 8.85413 11.3129 8.85413 10.9227H7.60413ZM10.7931 13.796L9.28676 11.9627L8.32095 12.7563L9.82725 14.5896L10.7931 13.796ZM11.3029 11.9989L9.82712 13.7962L10.7932 14.5894L12.2689 12.7922L11.3029 11.9989Z" fill="#404553"/>
<path fill-rule="evenodd" clip-rule="evenodd" d="M10.3124 12.1724C11.0027 12.1724 11.5624 11.6127 11.5624 10.9224C11.5624 10.232 11.0027 9.67236 10.3124 9.67236C9.62202 9.67236 9.06238 10.232 9.06238 10.9224C9.06238 11.6127 9.62202 12.1724 10.3124 12.1724Z" fill="white"/>
<path d="M2.18937 4.79836C2.18503 3.41595 3.30449 2.29297 4.68691 2.29297H17.6046L17.6018 6.04297H3.4379C2.74989 6.04297 2.19154 5.48637 2.18937 4.79836Z" fill="#FEEE00" stroke="#404553" stroke-width="1.25"/>
</svg>
