<svg width="20" height="20" viewBox="0 0 20 20" fill="none" xmlns="http://www.w3.org/2000/svg">
<path d="M2.28959 4.16965C2.28861 3.13343 3.12836 2.29288 4.16459 2.29288H15.8372C16.8729 2.29288 17.7125 3.13261 17.7122 4.16831L17.7096 15.835C17.7094 16.8703 16.87 17.7096 15.8346 17.7096H4.17558C3.14074 17.7096 2.30156 16.8712 2.30058 15.8363L2.28959 4.16965Z" stroke="#404553" stroke-width="1.25"/>
<path d="M2.29523 8.13185C2.29207 7.20915 3.03918 6.45947 3.96189 6.45947H16.0444C16.9654 6.45947 17.7118 7.2065 17.711 8.12751C17.7103 9.04745 16.9643 9.79281 16.0444 9.79281H3.96189C3.04364 9.79281 2.29838 9.05009 2.29523 8.13185Z" fill="#FEEE00" stroke="#404553" stroke-width="1.25"/>
<mask id="path-3-inside-1_3246_15983" fill="white">
<path fill-rule="evenodd" clip-rule="evenodd" d="M5.00368 13.9673C4.9993 13.6191 5.28038 13.3345 5.62863 13.3345L10.2111 13.3345C10.557 13.3345 10.8371 13.6154 10.8361 13.9614C10.835 14.3058 10.5555 14.5845 10.2111 14.5845H5.62863C5.28651 14.5845 5.00798 14.3094 5.00368 13.9673Z"/>
</mask>
<path d="M5.62863 14.5845H10.2111V12.0845H5.62863V14.5845ZM10.2111 13.3345H5.62863V15.8345H10.2111V13.3345ZM5.62863 13.3345C5.97075 13.3345 6.24928 13.6095 6.25358 13.9516L3.75378 13.983C3.76667 15.0093 4.60228 15.8345 5.62863 15.8345V13.3345ZM9.58607 13.9576C9.58711 13.6131 9.86663 13.3345 10.2111 13.3345V15.8345C11.2444 15.8345 12.0829 14.9985 12.0861 13.9651L9.58607 13.9576ZM10.2111 14.5845C9.86515 14.5845 9.58503 14.3035 9.58607 13.9576L12.0861 13.9651C12.0892 12.9274 11.2488 12.0845 10.2111 12.0845V14.5845ZM5.62863 12.0845C4.58388 12.0845 3.74065 12.9384 3.75378 13.983L6.25358 13.9516C6.25796 14.2998 5.97688 14.5845 5.62863 14.5845V12.0845Z" fill="#404553" mask="url(#path-3-inside-1_3246_15983)"/>
</svg>
