<svg width="20" height="20" viewBox="0 0 20 20" fill="none" xmlns="http://www.w3.org/2000/svg">
<path d="M2.28947 4.16965C2.28849 3.13343 3.12824 2.29288 4.16447 2.29288H15.8371C16.8728 2.29288 17.7123 3.13261 17.7121 4.16831L17.7095 15.835C17.7092 16.8703 16.8698 17.7096 15.8345 17.7096H4.17546C3.14062 17.7096 2.30144 16.8712 2.30046 15.8363L2.28947 4.16965Z" stroke="#404553" stroke-width="1.25"/>
<mask id="path-2-inside-1_3553_16769" fill="white">
<path fill-rule="evenodd" clip-rule="evenodd" d="M7.49084 13.2725C7.49254 13.2725 7.49424 13.2725 7.49594 13.2725H10.0039C12.3047 13.2725 14.1698 11.4073 14.1698 9.10657C14.1692 6.80372 12.3031 4.93823 10.0015 4.93823H7.5015"/>
</mask>
<path fill-rule="evenodd" clip-rule="evenodd" d="M7.49084 13.2725C7.49254 13.2725 7.49424 13.2725 7.49594 13.2725H10.0039C12.3047 13.2725 14.1698 11.4073 14.1698 9.10657C14.1692 6.80372 12.3031 4.93823 10.0015 4.93823H7.5015" fill="#FEEE00"/>
<path d="M10.0039 13.2725V12.0225V13.2725ZM14.1698 9.10657L15.4198 9.10621V9.10657H14.1698ZM7.49238 12.0225C7.49357 12.0225 7.49476 12.0225 7.49594 12.0225V14.5225C7.49373 14.5225 7.49152 14.5225 7.48931 14.5225L7.49238 12.0225ZM7.49594 12.0225H10.0039V14.5225H7.49594V12.0225ZM10.0039 12.0225C11.6143 12.0225 12.9198 10.717 12.9198 9.10657H15.4198C15.4198 12.0977 12.9951 14.5225 10.0039 14.5225V12.0225ZM12.9198 9.10694C12.9194 7.49406 11.6127 6.18823 10.0015 6.18823V3.68823C12.9936 3.68823 15.419 6.11337 15.4198 9.10621L12.9198 9.10694ZM10.0015 6.18823H7.5015V3.68823H10.0015V6.18823Z" fill="#404553" mask="url(#path-2-inside-1_3553_16769)"/>
<path d="M9.0083 10.2869L6.65128 12.644L9.0083 15.001" stroke="#404553" stroke-width="1.25"/>
</svg>
