<svg width="21" height="20" viewBox="0 0 21 20" fill="none" xmlns="http://www.w3.org/2000/svg">
<path d="M4.72599 5.62558V3.93766C4.72599 3.01719 5.47218 2.271 6.39265 2.271H17.4996C18.4202 2.271 19.1665 3.01741 19.1663 3.93803L19.1636 16.0266C19.1634 16.9469 18.4173 17.6929 17.497 17.6929H6.36385C5.44337 17.6929 4.69718 16.9467 4.69718 16.0262V8.64129" stroke="#404553" stroke-width="1.25"/>
<path d="M5.37323 6.6748H2.78186" stroke="#404553" stroke-width="1.25"/>
<path d="M5.3468 8.45508H2.78186" stroke="#404553" stroke-width="1.25"/>
<path d="M5 5L19.1667 5" stroke="#404553" stroke-width="1.25"/>
<rect x="3.125" y="10.625" width="12.0833" height="7.08333" rx="1.04167" fill="#FEEE00" stroke="#404553" stroke-width="1.25"/>
<circle cx="9.16667" cy="14.1667" r="1.25" stroke="#404553" stroke-width="0.833333"/>
<path d="M5 14.1665H6.66667" stroke="#404553" stroke-width="0.833333"/>
<path d="M11.6666 14.1665H13.3333" stroke="#404553" stroke-width="0.833333"/>
<path d="M11.448 8.82176V5.00583H16.0313V8.82176L14.001 7.88717L13.7396 7.76687L13.4783 7.88717L11.448 8.82176Z" fill="#FEEE00" stroke="#404553" stroke-width="1.25"/>
</svg>
